<?xml version="1.0" standalone="no"?>
<!DOCTYPE svg PUBLIC "-//W3C//DTD SVG 20010904//EN"
 "http://www.w3.org/TR/2001/REC-SVG-20010904/DTD/svg10.dtd">
<svg version="1.0" xmlns="http://www.w3.org/2000/svg"
 width="700.000000pt" height="700.000000pt" viewBox="0 0 700.000000 700.000000"
 preserveAspectRatio="xMidYMid meet">
<metadata>
Created by potrace 1.11, written by Peter Selinger 2001-2013
</metadata>
<g transform="translate(0.000000,700.000000) scale(0.100000,-0.100000)"
fill="#000000" stroke="none">
<path d="M585 6338 c-239 -27 -441 -179 -533 -399 -40 -98 -53 -171 -47 -282
23 -515 596 -798 1026 -506 288 195 365 603 171 898 -104 157 -290 272 -466
287 -33 3 -65 7 -71 8 -5 1 -41 -2 -80 -6z"/>
<path d="M1874 6155 c-32 -16 -62 -42 -85 -72 l-34 -48 -3 -320 c-2 -233 0
-332 9 -364 18 -63 80 -125 144 -143 42 -12 416 -14 2485 -13 l2435 1 45 21
c55 25 92 64 114 121 14 38 16 86 16 355 -1 277 -3 316 -19 352 -23 51 -65 93
-116 116 -38 18 -136 19 -2491 19 l-2450 0 -50 -25z"/>
<path d="M545 4145 c-214 -39 -387 -170 -480 -366 -47 -99 -66 -194 -61 -306
18 -400 370 -682 772 -619 47 8 151 45 193 69 136 78 241 197 296 334 34 86
40 125 39 263 0 97 -5 126 -27 188 -37 107 -82 177 -166 260 -148 146 -362
213 -566 177z"/>
<path d="M1952 3988 c-93 -10 -158 -60 -186 -142 -13 -39 -16 -99 -16 -354 0
-282 2 -310 20 -350 25 -56 83 -109 133 -123 46 -12 4874 -16 4930 -3 64 14
118 60 148 129 18 41 19 67 19 363 l-1 320 -32 53 c-25 43 -43 60 -88 82 l-55
28 -2405 2 c-1322 1 -2432 -1 -2467 -5z"/>
<path d="M565 1963 c-169 -22 -340 -126 -439 -268 -90 -127 -126 -247 -121
-400 4 -109 5 -116 30 -190 68 -200 229 -358 419 -415 96 -28 113 -31 200 -31
78 1 97 3 161 18 43 10 43 10 122 44 123 52 262 193 318 324 56 130 70 295 36
428 -60 231 -236 410 -468 473 -57 15 -199 25 -258 17z"/>
<path d="M1897 1789 c-57 -19 -99 -57 -126 -113 -18 -38 -20 -65 -20 -359 -1
-291 0 -322 17 -360 21 -47 62 -91 107 -115 28 -16 221 -17 2490 -19 2435 -3
2460 -2 2504 17 52 24 95 70 117 126 13 34 15 88 12 365 -3 281 -6 328 -20
354 -24 43 -67 81 -113 101 -38 17 -185 18 -2480 18 -2225 1 -2444 0 -2488
-15z"/>
</g>
</svg>
